<svg width="16" height="16" viewBox="0 0 16 16" fill="none" xmlns="http://www.w3.org/2000/svg">
<path d="M5.90827 5.6194L4.0677 7.45996C3.3896 8.13807 2.70762 8.81617 2.03339 9.50203C1.87452 9.66477 1.7544 9.88177 1.7079 10.0949C1.46378 11.2147 1.22741 12.3346 0.991043 13.4544L0.859297 14.0744C0.797299 14.3766 0.878672 14.6789 1.08404 14.8842C1.24291 15.0431 1.46378 15.1322 1.69627 15.1322C1.76214 15.1322 1.82802 15.1245 1.89389 15.1129L2.57587 14.9695C3.66084 14.7409 4.74968 14.5084 5.83465 14.2836C6.08652 14.2294 6.29963 14.117 6.48175 13.9349C9.52741 10.8854 12.5731 7.8397 15.6187 4.79792C15.8435 4.57318 15.9675 4.30581 15.9985 3.97645C16.0023 3.9222 15.9985 3.86795 15.9868 3.81758C15.9675 3.74008 15.952 3.65871 15.9326 3.58121C15.89 3.38359 15.8435 3.15885 15.7505 2.94185C15.1809 1.63989 14.2354 0.709921 12.9412 0.186812C12.6816 0.0821901 12.4065 0.0473162 12.1662 0.0163172L12.1003 0.00856739C11.7516 -0.0340563 11.4339 0.0821901 11.1587 0.361182C9.41504 2.11263 7.65972 3.86795 5.90827 5.6194ZM11.9725 0.942414C11.9802 0.942414 11.9841 0.942414 11.9918 0.942414L12.0577 0.950164C12.2592 0.973413 12.4452 0.996662 12.5924 1.05866C13.6464 1.4849 14.4214 2.24437 14.8903 3.31384C14.9445 3.43784 14.9794 3.59671 15.0142 3.76333C15.0259 3.82533 15.0414 3.88732 15.053 3.94932C15.0375 4.01907 15.0104 4.06557 14.9561 4.11594C11.9066 7.15772 8.86093 10.2073 5.81527 13.2529C5.7649 13.3033 5.7184 13.3265 5.64865 13.342C4.55981 13.5707 3.47484 13.7993 2.386 14.0279L1.81252 14.148L1.92102 13.6404C2.15738 12.5244 2.39375 11.4046 2.63399 10.2886C2.64174 10.2538 2.67274 10.1995 2.70762 10.1608C3.38185 9.47878 4.05608 8.80067 4.73418 8.12644L6.57475 6.28588C8.33007 4.53055 10.0854 2.77523 11.8368 1.01604C11.9105 0.954039 11.9453 0.942414 11.9725 0.942414Z" fill="white"/>
</svg>
