<svg width="15" height="15" viewBox="0 0 15 15" fill="none" xmlns="http://www.w3.org/2000/svg">
<path d="M1.42788 1.00179H7.83682C8.08643 1.00179 8.28831 0.799909 8.28831 0.550305C8.28831 0.300701 8.08643 0.0988159 7.83682 0.0988159H1.42788C0.638692 0.0988159 0 0.741178 0 1.5267V13.5444C0 14.3336 0.642363 14.9723 1.42788 14.9723H13.4419C14.2311 14.9723 14.8698 14.3299 14.8698 13.5444V7.39605C14.8698 7.14645 14.6679 6.94456 14.4183 6.94456C14.1687 6.94456 13.9668 7.14645 13.9668 7.39605V13.5444C13.9668 13.8344 13.7282 14.073 13.4382 14.073H1.42788C1.1379 14.073 0.899308 13.8344 0.899308 13.5444V1.53037C0.899308 1.24039 1.1379 1.00179 1.42788 1.00179Z" fill="black"/>
</svg>
