<?xml version="1.0" encoding="UTF-8" standalone="no"?>
<svg
   xmlns:dc="http://purl.org/dc/elements/1.1/"
   xmlns:cc="http://creativecommons.org/ns#"
   xmlns:rdf="http://www.w3.org/1999/02/22-rdf-syntax-ns#"
   xmlns:svg="http://www.w3.org/2000/svg"
   xmlns="http://www.w3.org/2000/svg"
   xmlns:sodipodi="http://sodipodi.sourceforge.net/DTD/sodipodi-0.dtd"
   xmlns:inkscape="http://www.inkscape.org/namespaces/inkscape"
   width="58"
   height="46"
   viewBox="0 0 58 46"
   fill="none"
   version="1.1"
   id="svg3731"
   sodipodi:docname="Vector (5).svg"
   inkscape:version="0.92.2 (5c3e80d, 2017-08-06)">
  <metadata
     id="metadata3737">
    <rdf:RDF>
      <cc:Work
         rdf:about="">
        <dc:format>image/svg+xml</dc:format>
        <dc:type
           rdf:resource="http://purl.org/dc/dcmitype/StillImage" />
        <dc:title></dc:title>
      </cc:Work>
    </rdf:RDF>
  </metadata>
  <defs
     id="defs3735" />
  <sodipodi:namedview
     pagecolor="#ffffff"
     bordercolor="#666666"
     borderopacity="1"
     objecttolerance="10"
     gridtolerance="10"
     guidetolerance="10"
     inkscape:pageopacity="0"
     inkscape:pageshadow="2"
     inkscape:window-width="1920"
     inkscape:window-height="1017"
     id="namedview3733"
     showgrid="false"
     inkscape:zoom="18.478261"
     inkscape:cx="29"
     inkscape:cy="23"
     inkscape:window-x="1912"
     inkscape:window-y="-8"
     inkscape:window-maximized="1"
     inkscape:current-layer="svg3731" />
  <path
     d="M57 0H1C0.448 0 0 0.447 0 1V45C0 45.553 0.448 46 1 46H57C57.552 46 58 45.553 58 45V1C58 0.447 57.552 0 57 0ZM56 44H2V2H56V44Z"
     id="path3729"
     fill="#B9C5CC" />
  <g
     style="fill:none"
     id="g3760"
     transform="translate(9.5317495,10.287471)">
    <path
       id="path3749"
       d="M 6.00003,11.138 C 9.07103,11.138 11.569,8.64 11.569,5.57 11.569,2.498 9.07103,0 6.00003,0 c -3.071,0 -5.569,2.498 -5.569,5.569 0,3.071 2.498,5.569 5.569,5.569 z m 0,-9.138 c 1.968,0 3.569,1.602 3.569,3.569 0,1.967 -1.601,3.569 -3.569,3.569 -1.968,0 -3.569,-1.601 -3.569,-3.568 0,-1.967 1.601,-3.57 3.569,-3.57 z"
       inkscape:connector-curvature="0"
       style="fill:#b9c5cc" />
  </g>
  <g
     style="fill:none"
     id="g3783"
     transform="translate(6.2109201,16.64081)">
    <path
       id="path3772"
       d="m 1.00004,23 c 0.234,0 0.47,-0.082 0.66,-0.249 L 17.973,8.38902 28.275,18.69 c 0.391,0.391 1.023,0.391 1.414,0 0.391,-0.391 0.391,-1.023 0,-1.414 L 24.882,12.469 34.063,2.41502 45.324,12.738 c 0.407,0.373 1.04,0.345 1.413,-0.062 0.373,-0.407 0.346,-1.04 -0.062,-1.413 l -12,-10.999982 C 34.479,0.0840178 34.218,-0.00498321 33.955,0.00101679 33.69,0.0130168 33.44,0.130018 33.261,0.326018 L 23.467,11.053 18.724,6.31002 c -0.374,-0.373 -0.972,-0.392 -1.368,-0.044 L 0.339041,21.249 c -0.4150001,0.365 -0.455,0.997 -0.09,1.412 0.198,0.225 0.474,0.339 0.750999,0.339 z"
       inkscape:connector-curvature="0"
       style="fill:#b9c5cc" />
  </g>
</svg>
