<svg width="15" height="15" viewBox="0 0 15 15" fill="none" xmlns="http://www.w3.org/2000/svg">
<path d="M5.43856 5.32321L3.69501 7.06676C3.05264 7.70912 2.40661 8.35149 1.76792 9.00119C1.61742 9.15536 1.50363 9.36091 1.45958 9.5628C1.22833 10.6236 1.00442 11.6844 0.780514 12.7452L0.655712 13.3325C0.596982 13.6189 0.674065 13.9052 0.868609 14.0997C1.01911 14.2502 1.22833 14.3346 1.44857 14.3346C1.51097 14.3346 1.57337 14.3273 1.63577 14.3163L2.28181 14.1805C3.30959 13.9639 4.34104 13.7437 5.36882 13.5308C5.60741 13.4794 5.8093 13.3729 5.98182 13.2004C8.86694 10.3116 11.7521 7.42648 14.6372 4.54503C14.8501 4.33213 14.9676 4.07886 14.9969 3.76685C15.0006 3.71546 14.9969 3.66408 14.9859 3.61636C14.9676 3.54294 14.9529 3.46586 14.9345 3.39245C14.8941 3.20525 14.8501 2.99235 14.762 2.78679C14.2224 1.55346 13.3268 0.672502 12.1008 0.176965C11.8548 0.077858 11.5942 0.0448222 11.3667 0.0154571L11.3043 0.00811581C10.9739 -0.0322613 10.6729 0.077858 10.4123 0.342144C8.7605 2.00127 7.09769 3.66408 5.43856 5.32321ZM11.1831 0.892741C11.1905 0.892741 11.1941 0.892741 11.2015 0.892741L11.2639 0.900082C11.4547 0.922106 11.6309 0.94413 11.7704 1.00286C12.7688 1.40663 13.503 2.12608 13.9471 3.13917C13.9985 3.25663 14.0315 3.40713 14.0646 3.56497C14.0756 3.6237 14.0903 3.68243 14.1013 3.74116C14.0866 3.80723 14.0609 3.85128 14.0095 3.899C11.1207 6.78045 8.23559 9.66925 5.35047 12.5544C5.30275 12.6021 5.2587 12.6241 5.19263 12.6388C4.16118 12.8554 3.1334 13.0719 2.10195 13.2885L1.55869 13.4023L1.66147 12.9214C1.88538 11.8643 2.10929 10.8035 2.33687 9.74633C2.34421 9.71329 2.37357 9.6619 2.40661 9.6252C3.0453 8.97917 3.68399 8.3368 4.32636 7.69811L6.06991 5.95456C7.73271 4.29176 9.39552 2.62895 11.0546 0.962483C11.1244 0.903753 11.1574 0.892741 11.1831 0.892741Z" fill="black"/>
</svg>
